<svg width="30" height="30" viewBox="0 0 30 30" fill="none" xmlns="http://www.w3.org/2000/svg">
<g clip-path="url(#clip0_233_302)">
<path d="M23.6749 18.9551C23.3624 18.6426 23.0255 18.4033 22.6642 18.2373C22.3028 18.0713 21.9269 17.9883 21.5362 17.9883C21.1456 17.9883 20.7696 18.0713 20.4083 18.2373C20.047 18.4033 19.7003 18.6426 19.3683 18.9551L17.3761 20.9473C17.298 20.9082 17.2149 20.8691 17.1271 20.8301C17.0392 20.791 16.9562 20.7422 16.878 20.6836C16.7804 20.6445 16.6778 20.5957 16.5704 20.5371C16.463 20.4785 16.3605 20.4199 16.2628 20.3613C15.3253 19.7754 14.4269 19.0869 13.5675 18.2959C12.7081 17.5049 11.8683 16.6113 11.048 15.6152C10.6573 15.1074 10.3253 14.6387 10.0519 14.209C9.77842 13.7793 9.54405 13.3496 9.34873 12.9199C9.60264 12.6855 9.85166 12.4463 10.0958 12.2021C10.3399 11.958 10.5792 11.7188 10.8136 11.4844C10.8917 11.3867 10.9796 11.2939 11.0772 11.2061C11.1749 11.1182 11.2628 11.0254 11.3409 10.9277C12.005 10.2637 12.337 9.53613 12.337 8.74512C12.337 7.9541 12.005 7.22656 11.3409 6.5625L9.61241 4.83398C9.51475 4.73633 9.41709 4.63379 9.31944 4.52637C9.22178 4.41895 9.12412 4.31641 9.02647 4.21875C8.83116 4.02344 8.63584 3.82812 8.44053 3.63281C8.24522 3.4375 8.04991 3.24219 7.85459 3.04688C7.54209 2.73438 7.20518 2.5 6.84385 2.34375C6.48252 2.1875 6.10655 2.10938 5.71592 2.10938C5.3253 2.10938 4.94932 2.1875 4.58799 2.34375C4.22666 2.5 3.88975 2.73438 3.57725 3.04688C3.57725 3.04688 3.56748 3.04688 3.54795 3.04688L1.40928 5.24414C0.999124 5.63477 0.681742 6.0791 0.457132 6.57715C0.232523 7.0752 0.0909213 7.60742 0.0323276 8.17383C-0.0457974 9.0918 0.0176792 9.96094 0.222757 10.7812C0.427835 11.6016 0.637796 12.2949 0.85264 12.8613C1.36045 14.248 2.00987 15.6006 2.80088 16.9189C3.5919 18.2373 4.55381 19.5801 5.68662 20.9473C6.38975 21.7871 7.12217 22.5684 7.88389 23.291C8.64561 24.0332 9.44151 24.7314 10.2716 25.3857C11.1017 26.04 11.9562 26.6406 12.8351 27.1875C13.7335 27.7539 14.6612 28.2617 15.6183 28.7109C16.3409 29.0625 17.1759 29.4092 18.1231 29.751C19.0704 30.0928 20.0909 30.3027 21.1847 30.3809C21.2433 30.3809 21.3067 30.3809 21.3751 30.3809C21.4435 30.3809 21.5167 30.3809 21.5948 30.3809C22.3175 30.3809 22.9864 30.249 23.6017 29.9854C24.2169 29.7217 24.7589 29.3262 25.2276 28.7988C25.2472 28.7988 25.2569 28.7988 25.2569 28.7988C25.2569 28.7988 25.2569 28.7891 25.2569 28.7695C25.4327 28.5742 25.6134 28.3838 25.7989 28.1982C25.9845 28.0127 26.1749 27.8223 26.3702 27.627C26.5069 27.5098 26.6437 27.3828 26.7804 27.2461C26.9171 27.1094 27.0538 26.9629 27.1905 26.8066C27.503 26.4941 27.7423 26.1523 27.9083 25.7812C28.0743 25.4102 28.1573 25.0293 28.1573 24.6387C28.1573 24.248 28.0743 23.8672 27.9083 23.4961C27.7423 23.125 27.4933 22.7734 27.1612 22.4414L23.6749 18.9551ZM25.9601 25.6348C25.8233 25.7715 25.6915 25.8984 25.5646 26.0156C25.4376 26.1328 25.3058 26.2598 25.169 26.3965C24.9737 26.5918 24.7687 26.7969 24.5538 27.0117C24.339 27.2266 24.1339 27.4414 23.9386 27.6562C23.6261 28.0078 23.2745 28.2666 22.8839 28.4326C22.4933 28.5986 22.0538 28.6816 21.5655 28.6816C21.5265 28.6816 21.4825 28.6816 21.4337 28.6816C21.3849 28.6816 21.3312 28.6816 21.2726 28.6816C20.3351 28.6035 19.4415 28.4131 18.5919 28.1104C17.7423 27.8076 16.9952 27.5 16.3507 27.1875C15.4522 26.7578 14.5831 26.2793 13.7433 25.752C12.9034 25.2246 12.0929 24.6582 11.3116 24.0527C10.5304 23.4473 9.77842 22.793 9.05577 22.0898C8.33311 21.3867 7.64952 20.6445 7.00498 19.8633C5.93077 18.5547 5.02256 17.2852 4.28037 16.0547C3.53819 14.8242 2.92295 13.5645 2.43467 12.2754C2.1417 11.4941 1.94151 10.7812 1.83409 10.1367C1.72666 9.49219 1.69248 8.88672 1.73155 8.32031C1.77061 7.94922 1.8585 7.60742 1.99522 7.29492C2.13194 6.98242 2.33702 6.69922 2.61045 6.44531L4.74912 4.27734C4.90537 4.12109 5.06651 4.00879 5.23252 3.94043C5.39854 3.87207 5.55967 3.83789 5.71592 3.83789C5.91123 3.83789 6.0919 3.88672 6.25791 3.98438C6.42393 4.08203 6.55577 4.17969 6.65342 4.27734C6.84873 4.47266 7.03916 4.66309 7.22471 4.84863C7.41026 5.03418 7.60069 5.22461 7.796 5.41992C7.89366 5.51758 7.99619 5.62012 8.10362 5.72754C8.21104 5.83496 8.31358 5.9375 8.41123 6.03516L10.1397 7.76367C10.4718 8.0957 10.6378 8.42285 10.6378 8.74512C10.6378 9.06738 10.4718 9.39453 10.1397 9.72656C10.0421 9.82422 9.94932 9.91699 9.86143 10.0049C9.77354 10.0928 9.68077 10.1855 9.58311 10.2832C9.3292 10.5566 9.07041 10.8203 8.80674 11.0742C8.54307 11.3281 8.27452 11.5723 8.00108 11.8066C8.00108 11.8262 7.99619 11.8359 7.98643 11.8359C7.97666 11.8359 7.97178 11.8359 7.97178 11.8359C7.69834 12.1094 7.56162 12.373 7.56162 12.627C7.56162 12.8809 7.59092 13.0957 7.64952 13.2715C7.64952 13.291 7.64952 13.3057 7.64952 13.3154C7.64952 13.3252 7.65928 13.3301 7.67881 13.3301C7.89366 13.877 8.16709 14.4189 8.49912 14.9561C8.83116 15.4932 9.23155 16.0645 9.7003 16.6699H9.72959C10.589 17.7441 11.4874 18.7061 12.4249 19.5557C13.3624 20.4053 14.339 21.1523 15.3546 21.7969C15.4718 21.875 15.5987 21.9482 15.7355 22.0166C15.8722 22.085 15.9991 22.1484 16.1163 22.207C16.2335 22.2656 16.3458 22.3242 16.4532 22.3828C16.5606 22.4414 16.6632 22.5 16.7608 22.5586C16.7608 22.5586 16.7706 22.5635 16.7901 22.5732C16.8097 22.583 16.8194 22.5879 16.8194 22.5879C16.9366 22.6465 17.044 22.6904 17.1417 22.7197C17.2394 22.749 17.3468 22.7637 17.464 22.7637C17.7179 22.7637 17.9278 22.7051 18.0939 22.5879C18.2599 22.4707 18.3624 22.3828 18.4015 22.3242L20.5694 20.1562C20.6866 20.0391 20.8282 19.9316 20.9942 19.834C21.1603 19.7363 21.3409 19.6875 21.5362 19.6875C21.7315 19.6875 21.9073 19.7363 22.0636 19.834C22.2198 19.9316 22.3468 20.0293 22.4444 20.127C22.4444 20.1465 22.4444 20.1562 22.4444 20.1562C22.4444 20.1562 22.4542 20.1562 22.4737 20.1562L25.9601 23.6426C26.2726 23.9746 26.4288 24.3066 26.4288 24.6387C26.4288 24.9707 26.2726 25.3027 25.9601 25.6348ZM16.1749 7.5C17.0147 7.65625 17.8058 7.9248 18.548 8.30566C19.2901 8.68652 19.964 9.17969 20.5694 9.78516C21.1554 10.3906 21.6437 11.0645 22.0343 11.8066C22.4249 12.5488 22.6886 13.3301 22.8253 14.1504C22.8644 14.3652 22.962 14.5361 23.1183 14.6631C23.2745 14.79 23.4601 14.8535 23.6749 14.8535C23.6944 14.8535 23.714 14.8535 23.7335 14.8535C23.753 14.8535 23.7823 14.8535 23.8214 14.8535C24.0558 14.8145 24.2413 14.6973 24.378 14.502C24.5147 14.3066 24.5636 14.0918 24.5245 13.8574C24.3487 12.8613 24.0265 11.9141 23.5577 11.0156C23.089 10.1172 22.4933 9.30664 21.7706 8.58398C21.048 7.86133 20.2374 7.26562 19.339 6.79688C18.4405 6.32812 17.4933 6.00586 16.4972 5.83008C16.2628 5.79102 16.048 5.83984 15.8526 5.97656C15.6573 6.11328 15.5401 6.29883 15.5011 6.5332C15.462 6.74805 15.506 6.95312 15.6329 7.14844C15.7599 7.34375 15.9405 7.46094 16.1749 7.5ZM29.9444 13.623C29.8077 12.7832 29.6026 11.9727 29.3292 11.1914C29.0753 10.4102 28.7579 9.65332 28.3771 8.9209C27.9962 8.18848 27.5616 7.48047 27.0733 6.79688C26.5655 6.13281 26.0187 5.49805 25.4327 4.89258C24.8272 4.30664 24.1925 3.76953 23.5284 3.28125C22.8448 2.77344 22.1368 2.33398 21.4044 1.96289C20.672 1.5918 19.9151 1.26953 19.1339 0.996094C18.3526 0.742188 17.5519 0.537109 16.7315 0.380859C16.4972 0.341797 16.2823 0.390625 16.087 0.527344C15.8917 0.664062 15.7745 0.849609 15.7355 1.08398C15.6964 1.31836 15.7452 1.5332 15.8819 1.72852C16.0187 1.92383 16.2042 2.04102 16.4386 2.08008C17.923 2.33398 19.3243 2.80273 20.6427 3.48633C21.961 4.16992 23.1573 5.04883 24.2315 6.12305C25.3058 7.17773 26.1847 8.36914 26.8683 9.69727C27.5519 11.0254 28.0108 12.4219 28.2452 13.8867C28.2843 14.1016 28.3868 14.2725 28.5528 14.3994C28.7189 14.5264 28.8995 14.5898 29.0948 14.5898C29.1339 14.5898 29.1632 14.5898 29.1827 14.5898C29.2022 14.5898 29.2218 14.5898 29.2413 14.5898C29.4757 14.5508 29.6612 14.4336 29.798 14.2383C29.9347 14.043 29.9835 13.8379 29.9444 13.623Z" fill="white"/>
</g>
<defs>
<clipPath id="clip0_233_302">
<rect width="30" height="30" fill="white" transform="matrix(1 0 0 -1 0 30)"/>
</clipPath>
</defs>
</svg>
