<svg width="80" height="80" viewBox="0 0 80 80" fill="none" xmlns="http://www.w3.org/2000/svg">
<circle cx="40" cy="40" r="39.5" fill="#02449F" stroke="#4794FF"/>
<path d="M55.8054 47.7546C53.9869 46.1566 52.748 44.0019 52.2817 41.6263C52.2228 41.3764 52.0828 41.1531 51.8837 40.991C51.6845 40.8289 51.4374 40.7373 51.1807 40.7303C50.7775 40.6901 50.3705 40.7401 49.9891 40.8769C49.6076 41.0136 49.2615 41.2336 48.9757 41.5208C48.6899 41.8081 48.4717 42.1553 48.3369 42.5374C48.2021 42.9195 48.154 43.3268 48.1963 43.7298C48.5431 45.5891 49.0305 47.4195 49.6543 49.205C49.654 49.2176 49.6512 49.2299 49.646 49.2413C49.6408 49.2527 49.6334 49.2629 49.6242 49.2714C49.615 49.2799 49.6042 49.2865 49.5924 49.2907C49.5806 49.295 49.5681 49.2968 49.5556 49.2962L43.6248 49.3114C43.2687 49.3128 42.9172 49.3908 42.5939 49.5401C42.2707 49.6893 41.9833 49.9064 41.7514 50.1765C41.5194 50.4466 41.3483 50.7635 41.2496 51.1055C41.1509 51.4476 41.127 51.8069 41.1794 52.1591L42.0527 58.0976C42.2214 59.1856 42.7748 60.1771 43.6122 60.8919C44.4497 61.6067 45.5157 61.9975 46.6167 61.9933L53.026 61.9932C54.628 62.0862 55.8202 61.2925 57.2178 60.8542C57.3842 60.8156 57.5325 60.7217 57.6387 60.5879C57.7449 60.4542 57.8027 60.2884 57.8026 60.1176V50.6935C57.7417 50.3144 57.5626 49.2654 55.8054 47.7546Z" fill="white"/>
<path d="M36.3811 49.736L30.678 49.7284C30.678 49.7284 30.6325 49.6752 30.6173 49.66C31.2146 47.9538 31.6817 46.2047 32.0146 44.4278C32.0549 44.0411 32.0114 43.6503 31.8869 43.282C31.7623 42.9138 31.5598 42.5767 31.2931 42.2939C30.5745 41.4663 28.437 40.9315 28.0353 42.3698C27.584 44.6506 26.3937 46.719 24.6484 48.2551C23.7257 48.9149 23.0538 49.8678 22.7424 50.9585C22.7298 51.003 22.7247 51.0491 22.7272 51.0952L22.7271 60.1625C22.751 61.0597 23.8798 60.9234 24.451 61.3244C25.3489 61.7729 26.3406 62.0019 27.3443 61.9926H33.503C34.569 61.9979 35.6013 61.6195 36.4114 60.9265C37.2214 60.2336 37.7552 59.2723 37.9151 58.2183L38.758 52.5229C38.8131 52.179 38.7929 51.8272 38.6988 51.4919C38.6046 51.1566 38.4389 50.8457 38.2129 50.5807C37.9869 50.3157 37.706 50.103 37.3898 49.9571C37.0735 49.8113 36.7294 49.7358 36.3811 49.736Z" fill="white"/>
<path d="M18.314 48.9385H20.4469C20.5466 48.9385 20.6453 48.9582 20.7375 48.9963C20.8296 49.0345 20.9133 49.0904 20.9839 49.161C21.0544 49.2315 21.1103 49.3152 21.1485 49.4073C21.1866 49.4995 21.2063 49.5982 21.2063 49.6979V61.2332C21.2063 61.4346 21.1263 61.6277 20.9839 61.7701C20.8415 61.9125 20.6483 61.9925 20.4469 61.9925H18.314C18.1127 61.9925 17.9195 61.9125 17.7771 61.7701C17.6347 61.6277 17.5547 61.4346 17.5547 61.2332V49.6979C17.5547 49.5982 17.5743 49.4995 17.6125 49.4073C17.6506 49.3152 17.7066 49.2315 17.7771 49.161C17.8476 49.0904 17.9313 49.0345 18.0234 48.9963C18.1156 48.9582 18.2143 48.9385 18.314 48.9385Z" fill="white"/>
<path d="M60.0757 48.4678H62.3604C62.4602 48.4678 62.5589 48.4874 62.6511 48.5256C62.7432 48.5637 62.8269 48.6197 62.8974 48.6902C62.968 48.7607 63.0239 48.8444 63.0621 48.9366C63.1002 49.0287 63.1199 49.1275 63.1199 49.2272V61.2332C63.1199 61.4346 63.0399 61.6278 62.8975 61.7702C62.7551 61.9126 62.5619 61.9926 62.3605 61.9926H60.0758C59.8744 61.9926 59.6812 61.9126 59.5388 61.7701C59.3964 61.6277 59.3164 61.4346 59.3164 61.2332V49.2271C59.3164 49.0257 59.3964 48.8326 59.5388 48.6902C59.6812 48.5478 59.8743 48.4678 60.0757 48.4678Z" fill="white"/>
<path d="M51.7274 29.393C51.7278 27.289 51.1454 25.2261 50.045 23.4329C48.9445 21.6397 47.3688 20.1863 45.4928 19.2339C43.6167 18.2815 41.5136 17.8673 39.4165 18.0372C37.3194 18.2071 35.3104 18.9546 33.6121 20.1966C31.9139 21.4386 30.5928 23.1267 29.7954 25.0737C28.998 27.0207 28.7554 29.1505 29.0945 31.2269C29.4336 33.3034 30.3412 35.2453 31.7166 36.8375C33.092 38.4296 34.8815 39.6097 36.8867 40.2469L39.6856 43.9815C39.7614 44.0825 39.8596 44.1645 39.9726 44.221C40.0856 44.2775 40.2102 44.3069 40.3365 44.3069C40.4628 44.3069 40.5874 44.2775 40.7004 44.221C40.8133 44.1645 40.9116 44.0825 40.9874 43.9815L43.7863 40.2469C46.0862 39.5075 48.0931 38.0592 49.5195 36.1096C50.946 34.1599 51.7188 31.8088 51.7274 29.393ZM39.5554 32.4116C39.4003 32.5615 39.1934 32.646 38.9777 32.6475C38.7644 32.6459 38.5601 32.5612 38.4082 32.4116L35.6906 29.694C35.6152 29.6187 35.5553 29.5293 35.5145 29.4309C35.4737 29.3325 35.4527 29.227 35.4527 29.1204C35.4527 29.0138 35.4737 28.9083 35.5145 28.8099C35.5553 28.7115 35.6152 28.6221 35.6906 28.5468C35.8442 28.3944 36.0519 28.3088 36.2683 28.3088C36.4847 28.3088 36.6923 28.3944 36.846 28.5468L38.9777 30.6866L43.827 25.8374C43.9806 25.6849 44.1883 25.5994 44.4047 25.5994C44.6211 25.5994 44.8287 25.6849 44.9824 25.8374C45.0578 25.9126 45.1176 26.002 45.1585 26.1005C45.1993 26.1989 45.2203 26.3044 45.2203 26.411C45.2203 26.5175 45.1993 26.6231 45.1585 26.7215C45.1176 26.8199 45.0578 26.9093 44.9824 26.9846L39.5554 32.4116Z" fill="white"/>
</svg>
