<svg width="20" height="23" viewBox="0 0 20 23" fill="none" xmlns="http://www.w3.org/2000/svg">
<path fill-rule="evenodd" clip-rule="evenodd" d="M9.48596 22.5344C9.51952 22.5539 9.5459 22.5689 9.56458 22.5794L9.59561 22.5967C9.84324 22.7327 10.1504 22.7316 10.3983 22.5972L10.4301 22.5794C10.4488 22.5689 10.4752 22.5539 10.5087 22.5344C10.5759 22.4956 10.6718 22.4388 10.7924 22.3646C11.0334 22.2162 11.3737 21.9973 11.7803 21.7101C12.5919 21.1367 13.6749 20.286 14.7602 19.1748C16.9203 16.9631 19.164 13.6401 19.164 9.36662C19.164 4.30401 15.06 0.199951 9.99736 0.199951C4.93474 0.199951 0.830688 4.30401 0.830688 9.36662C0.830688 13.6401 3.07438 16.9631 5.23453 19.1748C6.31986 20.286 7.40281 21.1367 8.21445 21.7101C8.62097 21.9973 8.96128 22.2162 9.20235 22.3646C9.32294 22.4388 9.41885 22.4956 9.48596 22.5344ZM9.99736 12.7C11.8383 12.7 13.3307 11.2076 13.3307 9.36662C13.3307 7.52567 11.8383 6.03328 9.99736 6.03328C8.15641 6.03328 6.66402 7.52567 6.66402 9.36662C6.66402 11.2076 8.15641 12.7 9.99736 12.7Z" fill="black"/>
</svg>
