<svg width="24" height="24" viewBox="0 0 24 24" fill="none" xmlns="http://www.w3.org/2000/svg">
<path fill-rule="evenodd" clip-rule="evenodd" d="M0.330688 3.70028C0.330688 1.85933 1.82307 0.366943 3.66402 0.366943H5.18805C6.14403 0.366943 6.97732 1.01756 7.20918 1.94499L8.43784 6.85964C8.64114 7.67283 8.33729 8.52866 7.66671 9.03159L6.22936 10.1096C6.0801 10.2216 6.04765 10.3855 6.08958 10.4999C7.35126 13.9442 10.0868 16.6797 13.531 17.9414C13.6455 17.9833 13.8094 17.9509 13.9214 17.8016L14.9994 16.3643C15.5023 15.6937 16.3581 15.3898 17.1713 15.5931L22.086 16.8218C23.0134 17.0536 23.664 17.8869 23.664 18.8429V20.3669C23.664 22.2079 22.1716 23.7003 20.3307 23.7003H17.8307C8.16571 23.7003 0.330688 15.8653 0.330688 6.20028V3.70028Z" fill="black"/>
</svg>
