<svg width="80" height="80" viewBox="0 0 80 80" fill="none" xmlns="http://www.w3.org/2000/svg">
<circle cx="40" cy="40" r="39.5" fill="#02449F" stroke="#4794FF"/>
<path d="M37.426 25.8418C31.0374 25.8418 25.8398 31.0393 25.8398 37.4279C25.8398 43.8165 31.0374 49.014 37.426 49.014C37.7543 49.014 38.0792 49.0003 38.3995 48.9727V47.161L40.3253 46.8663L39.1722 45.2956L45.2936 39.1742L46.8643 40.3273L47.1591 38.4014H48.9708C48.9983 38.0812 49.0121 37.7562 49.0121 37.4279C49.0121 31.0393 43.8145 25.8418 37.426 25.8418ZM43.1401 38.7166H36.1366V29.3649H38.7147V36.1385H43.1401V38.7166Z" fill="white"/>
<path d="M51.5938 53.8105C52.8731 53.8105 53.9141 52.7696 53.9141 51.4902C53.9141 50.2106 52.8731 49.1699 51.5938 49.1699C50.3141 49.1699 49.2734 50.2106 49.2734 51.4902C49.2734 52.7696 50.3141 53.8105 51.5938 53.8105Z" fill="white"/>
<path d="M43.7083 55.8675L42.5626 57.4254L45.5543 60.4168L47.1133 59.2724C47.7413 59.6263 48.403 59.8978 49.0828 60.0868L49.3758 61.9999H53.6056L53.8986 60.0868C54.5784 59.8978 55.2401 59.6263 55.8685 59.2724L57.4264 60.4168L60.4178 57.4254L59.2734 55.8675C59.6272 55.2391 59.8988 54.5774 60.0878 53.8976L62.0009 53.6046V49.3748L60.0878 49.0818C59.8988 48.402 59.6272 47.7404 59.2734 47.1123L60.4178 45.5533L57.4264 42.5616L55.8685 43.7073C55.2401 43.3532 54.5784 43.0816 53.8986 42.8916L53.6056 40.9795H49.3758L49.0828 42.8916C48.4295 43.0739 47.7937 43.3317 47.1878 43.666C47.1629 43.6798 47.1381 43.6936 47.1133 43.7073L45.5543 42.5616L42.5626 45.5533L43.7083 47.1123C43.6945 47.1371 43.6808 47.162 43.667 47.1868C43.3327 47.7927 43.0749 48.4285 42.8926 49.0818L40.9805 49.3748V53.6046L42.8926 53.8976C43.0826 54.5774 43.3542 55.2391 43.7083 55.8675ZM51.5927 46.5913C54.2937 46.5913 56.4912 48.7887 56.4912 51.4897C56.4912 54.1907 54.2937 56.3882 51.5927 56.3882C48.8918 56.3882 46.6943 54.1907 46.6943 51.4897C46.6943 48.7887 48.8918 46.5913 51.5927 46.5913Z" fill="white"/>
<path d="M40.3273 56.1133L38.4014 55.8185V51.5586C38.0802 51.5811 37.7552 51.5922 37.4279 51.5922C29.617 51.5922 23.2637 45.2378 23.2637 37.4279C23.2637 29.617 29.617 23.2637 37.4279 23.2637C45.2378 23.2637 51.5922 29.617 51.5922 37.4279C51.5922 37.7552 51.5811 38.0802 51.5586 38.4014H55.8185L56.1133 40.3273L56.6987 39.8976C56.8011 39.0846 56.8552 38.2601 56.8552 37.4276C56.8552 32.2381 54.8343 27.3595 51.1648 23.69C47.4954 20.0209 42.6167 18 37.4276 18C32.2381 18 27.3595 20.0209 23.6903 23.6903C20.0209 27.3595 18 32.2384 18 37.4276C18 42.6167 20.0209 47.4954 23.6903 51.1648C27.3595 54.8343 32.2381 56.8552 37.4276 56.8552C38.2604 56.8552 39.0846 56.8011 39.8976 56.6984L40.3273 56.1133Z" fill="white"/>
</svg>
