<svg width="28" height="28" viewBox="0 0 28 28" fill="none" xmlns="http://www.w3.org/2000/svg">
<path d="M25.2984 0.684204H2.57446C1.48592 0.684204 0.605713 1.54358 0.605713 2.60608V25.4238C0.605713 26.4863 1.48592 27.3509 2.57446 27.3509H25.2984C26.387 27.3509 27.2724 26.4863 27.2724 25.429V2.60608C27.2724 1.54358 26.387 0.684204 25.2984 0.684204ZM8.51717 23.4082H4.55884V10.679H8.51717V23.4082ZM6.538 8.94462C5.26717 8.94462 4.24113 7.91858 4.24113 6.65295C4.24113 5.38733 5.26717 4.36129 6.538 4.36129C7.80363 4.36129 8.82967 5.38733 8.82967 6.65295C8.82967 7.91337 7.80363 8.94462 6.538 8.94462ZM23.3297 23.4082H19.3765V17.2207C19.3765 15.7467 19.3505 13.8457 17.3193 13.8457C15.262 13.8457 14.9495 15.455 14.9495 17.1165V23.4082H11.0015V10.679H14.7932V12.4186H14.8453C15.3713 11.4186 16.663 10.3613 18.5849 10.3613C22.5901 10.3613 23.3297 12.9967 23.3297 16.4238V23.4082Z" fill="white"/>
</svg>
