<svg width="31" height="30" viewBox="0 0 31 30" fill="none" xmlns="http://www.w3.org/2000/svg">
<g clip-path="url(#clip0_233_311)">
<path d="M30.4707 7.79297C30.4707 7.36328 30.3242 7.00195 30.0312 6.70898C29.7383 6.41602 29.377 6.26953 28.9473 6.26953L2.02344 6.29883C1.82812 6.29883 1.6377 6.33789 1.45215 6.41602C1.2666 6.49414 1.0957 6.60156 0.939453 6.73828C0.802734 6.89453 0.695312 7.06543 0.617188 7.25098C0.539062 7.43652 0.5 7.62695 0.5 7.82227L0.529297 22.9688C0.529297 23.1641 0.568359 23.3545 0.646484 23.54C0.724609 23.7256 0.832031 23.8965 0.96875 24.0527C1.125 24.1895 1.2959 24.2969 1.48145 24.375C1.66699 24.4531 1.85742 24.4922 2.05273 24.4922L28.9766 24.4629C29.3867 24.4629 29.7432 24.3115 30.0459 24.0088C30.3486 23.7061 30.5 23.3398 30.5 22.9102L30.4707 7.79297ZM27.248 7.79297L15.5 15.9668L3.72266 7.82227L27.248 7.79297ZM20.4805 17.5195L27.4531 22.9102L3.54688 22.9395L10.5488 17.5195C10.7246 17.3828 10.8223 17.2119 10.8418 17.0068C10.8613 16.8018 10.8125 16.6113 10.6953 16.4355C10.5586 16.2598 10.3877 16.1621 10.1826 16.1426C9.97754 16.123 9.78711 16.1719 9.61133 16.2891L2.05273 22.1484L2.02344 8.52539L15.0605 17.5488C15.1387 17.5879 15.2119 17.6172 15.2803 17.6367C15.3486 17.6562 15.4219 17.666 15.5 17.666C15.5781 17.666 15.6562 17.6562 15.7344 17.6367C15.8125 17.6172 15.8809 17.5879 15.9395 17.5488L28.9473 8.49609L28.9766 22.1484L21.418 16.2891C21.2422 16.1719 21.0518 16.123 20.8467 16.1426C20.6416 16.1621 20.4707 16.2598 20.334 16.4355C20.1973 16.6113 20.1436 16.8018 20.1729 17.0068C20.2021 17.2119 20.3047 17.3828 20.4805 17.5195Z" fill="white"/>
</g>
<defs>
<clipPath id="clip0_233_311">
<rect width="30" height="30" fill="white" transform="matrix(1 0 0 -1 0.5 30)"/>
</clipPath>
</defs>
</svg>
