<svg width="34" height="33" viewBox="0 0 34 33" fill="none" xmlns="http://www.w3.org/2000/svg">
<path d="M25.596 22.4358C25.5234 22.4358 25.4515 22.4215 25.3844 22.3938C25.3173 22.366 25.2563 22.3253 25.205 22.2739C25.1536 22.2226 25.1129 22.1616 25.0851 22.0945C25.0573 22.0274 25.0431 21.9555 25.0431 21.8828L25.0431 9.15007L8.79352 25.3996C8.68988 25.5033 8.54932 25.5615 8.40276 25.5615C8.2562 25.5615 8.11564 25.5033 8.01201 25.3996C7.90837 25.296 7.85015 25.1555 7.85015 25.0089C7.85015 24.8623 7.90837 24.7218 8.01201 24.6181L24.2616 8.36856L11.5288 8.36856C11.4562 8.36856 11.3843 8.35426 11.3172 8.32647C11.2501 8.29868 11.1892 8.25796 11.1378 8.20661C11.0865 8.15527 11.0458 8.09432 11.018 8.02723C10.9902 7.96015 10.9759 7.88825 10.9759 7.81564C10.9759 7.74303 10.9902 7.67113 11.018 7.60405C11.0458 7.53696 11.0865 7.47601 11.1378 7.42467C11.1892 7.37332 11.2501 7.33259 11.3172 7.30481C11.3843 7.27702 11.4562 7.26272 11.5288 7.26272L25.596 7.26272C25.6686 7.26268 25.7406 7.27695 25.8077 7.30473C25.8748 7.3325 25.9357 7.37323 25.9871 7.42458C26.0384 7.47593 26.0792 7.5369 26.1069 7.604C26.1347 7.6711 26.149 7.74302 26.1489 7.81564L26.1489 21.8828C26.149 21.9555 26.1347 22.0274 26.1069 22.0945C26.0792 22.1616 26.0384 22.2226 25.9871 22.2739C25.9357 22.3253 25.8748 22.366 25.8077 22.3938C25.7406 22.4215 25.6686 22.4358 25.596 22.4358Z" fill="#333333"/>
</svg>
