<svg width="80" height="80" viewBox="0 0 80 80" fill="none" xmlns="http://www.w3.org/2000/svg">
<circle cx="40" cy="40" r="39.5" fill="#02449F" stroke="#4794FF"/>
<path d="M17.3154 19.4249C16.5143 18.8785 15.4274 19.0846 14.883 19.8818C14.3386 20.6809 14.5428 21.7697 15.3399 22.3141L18.3342 24.3596C18.6375 24.5657 18.9797 24.6648 19.32 24.6648C19.8799 24.6648 20.4282 24.3965 20.7665 23.9007C21.3129 23.1035 21.1068 22.0147 20.3096 21.4703L17.3154 19.4249Z" fill="white"/>
<path d="M18.0773 33.0448C18.0773 32.0785 17.2938 31.2949 16.3274 31.2949H12.7499C11.7836 31.2949 11 32.0785 11 33.0448C11 34.0111 11.7836 34.7947 12.7499 34.7947H16.3274C17.2938 34.7947 18.0773 34.0111 18.0773 33.0448Z" fill="white"/>
<path d="M18.335 41.7307L15.3408 43.7761C14.5436 44.3205 14.3375 45.4093 14.8839 46.2084C15.2222 46.7042 15.7724 46.9725 16.3304 46.9725C16.6707 46.9725 17.0148 46.8734 17.3162 46.6673L20.3105 44.6219C21.1076 44.0775 21.3137 42.9886 20.7674 42.1895C20.223 41.3923 19.1322 41.1804 18.335 41.7307Z" fill="white"/>
<path d="M60.6195 24.6657C60.9598 24.6657 61.3039 24.5665 61.6053 24.3604L64.5995 22.315C65.3967 21.7706 65.6028 20.6818 65.0564 19.8827C64.512 19.0855 63.4232 18.8774 62.6241 19.4257L59.6298 21.4712C58.8327 22.0156 58.6266 23.1044 59.1729 23.9035C59.5112 24.3993 60.0595 24.6657 60.6195 24.6657Z" fill="white"/>
<path d="M67.1907 31.293H63.6132C62.6468 31.293 61.8633 32.0765 61.8633 33.0429C61.8633 34.0092 62.6468 34.7927 63.6132 34.7927H67.1907C68.157 34.7927 68.9406 34.0092 68.9406 33.0429C68.9406 32.0765 68.157 31.293 67.1907 31.293Z" fill="white"/>
<path d="M61.6044 41.7299C60.8034 41.1816 59.7165 41.3916 59.1721 42.1868C58.6277 42.9859 58.8318 44.0748 59.629 44.6192L62.6232 46.6646C62.9266 46.8707 63.2688 46.9698 63.609 46.9698C64.169 46.9698 64.7173 46.7015 65.0556 46.2057C65.6 45.4066 65.3958 44.3178 64.5987 43.7734L61.6044 41.7299Z" fill="white"/>
<path d="M39.9719 18C31.0766 17.9864 23.8438 25.2193 23.8438 34.1282C23.8438 38.2579 25.4031 42.026 27.9735 44.8705C29.84 46.949 31.0027 49.5311 31.1972 52.2862H48.7486C48.943 49.5311 50.1037 46.9471 51.9722 44.8705C54.5426 42.026 56.102 38.2579 56.102 34.1282C56.1 25.2193 48.8672 17.9845 39.9719 18ZM37.6037 26.8758C35.5777 27.5369 33.9114 29.034 33.0268 30.9823C32.7332 31.6278 32.0974 32.0089 31.4324 32.0089C31.1894 32.0089 30.9444 31.9583 30.7091 31.8514C29.8284 31.4528 29.4395 30.4165 29.8381 29.5357C31.1272 26.697 33.5615 24.5154 36.5168 23.5491C37.4384 23.2477 38.4223 23.7513 38.7236 24.669C39.025 25.5868 38.5214 26.5764 37.6037 26.8758Z" fill="white"/>
<path d="M31.2344 55.209V57.9291C31.2344 60.1787 33.0581 62.0005 35.3058 62.0005H44.6385C46.8881 62.0005 48.7099 60.1767 48.7099 57.9291V55.209H31.2344Z" fill="white"/>
</svg>
