<svg width="25" height="30" viewBox="0 0 25 30" fill="none" xmlns="http://www.w3.org/2000/svg">
<path d="M12.1289 6.35742C11.25 6.35742 10.4297 6.52344 9.66797 6.85547C8.90625 7.1875 8.24219 7.63672 7.67578 8.20312C7.10938 8.76953 6.66016 9.43359 6.32812 10.1953C5.99609 10.957 5.83008 11.7676 5.83008 12.627C5.83008 13.4863 5.99609 14.2969 6.32812 15.0586C6.66016 15.8203 7.10938 16.4893 7.67578 17.0654C8.24219 17.6416 8.90625 18.0859 9.66797 18.3984C10.4297 18.7305 11.25 18.8965 12.1289 18.8965C12.9883 18.8965 13.7988 18.7402 14.5605 18.4277C15.3223 18.0957 15.9863 17.6416 16.5527 17.0654C17.1191 16.4893 17.5684 15.8203 17.9004 15.0586C18.2324 14.2969 18.3984 13.4863 18.3984 12.627C18.3984 11.7676 18.2324 10.957 17.9004 10.1953C17.5684 9.43359 17.1191 8.76953 16.5527 8.20312C15.9863 7.63672 15.3223 7.1875 14.5605 6.85547C13.7988 6.52344 12.9883 6.35742 12.1289 6.35742ZM12.1289 17.4023C10.8008 17.4023 9.67285 16.9336 8.74512 15.9961C7.81738 15.0586 7.35352 13.9355 7.35352 12.627C7.35352 11.3184 7.81738 10.1953 8.74512 9.25781C9.67285 8.32031 10.8008 7.85156 12.1289 7.85156C13.4375 7.85156 14.5557 8.32031 15.4834 9.25781C16.4111 10.1953 16.875 11.3184 16.875 12.627C16.875 13.9355 16.4111 15.0586 15.4834 15.9961C14.5557 16.9336 13.4375 17.4023 12.1289 17.4023ZM12.1289 0.380859C12.0508 0.380859 11.9775 0.380859 11.9092 0.380859C11.8408 0.380859 11.7676 0.380859 11.6895 0.380859C10.1855 0.439453 8.75977 0.751953 7.41211 1.31836C6.06445 1.9043 4.86816 2.68555 3.82324 3.66211C2.77832 4.63867 1.92383 5.78125 1.25977 7.08984C0.595703 8.39844 0.195312 9.80469 0.0585938 11.3086C0 11.8945 -0.0146484 12.4805 0.0146484 13.0664C0.0439453 13.6523 0.107422 14.2188 0.205078 14.7656C0.205078 14.7656 0.214844 14.7998 0.234375 14.8682C0.253906 14.9365 0.273438 15.0391 0.292969 15.1758C0.390625 15.5859 0.507812 15.9912 0.644531 16.3916C0.78125 16.792 0.9375 17.1777 1.11328 17.5488C1.42578 18.291 1.83594 19.1211 2.34375 20.0391C2.87109 20.9766 3.53027 21.9727 4.32129 23.0273C5.1123 24.082 6.05469 25.1953 7.14844 26.3672C8.24219 27.5391 9.53125 28.7402 11.0156 29.9707C11.1719 30.1074 11.3477 30.21 11.543 30.2783C11.7383 30.3467 11.9336 30.3809 12.1289 30.3809C12.3438 30.3809 12.5439 30.3467 12.7295 30.2783C12.915 30.21 13.0859 30.1074 13.2422 29.9707C14.7266 28.7402 16.0156 27.5391 17.1094 26.3672C18.2227 25.1953 19.1699 24.082 19.9512 23.0273C20.7324 21.9727 21.3867 20.9863 21.9141 20.0684C22.4219 19.1504 22.832 18.3203 23.1445 17.5781C23.3203 17.1875 23.4766 16.792 23.6133 16.3916C23.75 15.9912 23.8672 15.5859 23.9648 15.1758C23.9844 15.0977 23.999 15.0293 24.0088 14.9707C24.0186 14.9121 24.0332 14.8535 24.0527 14.7949C24.1113 14.4043 24.1602 14.0186 24.1992 13.6377C24.2383 13.2568 24.2578 12.8711 24.2578 12.4805C24.2578 10.8203 23.9355 9.25781 23.291 7.79297C22.6465 6.30859 21.7773 5.01953 20.6836 3.92578C19.5898 2.83203 18.3105 1.96289 16.8457 1.31836C15.3613 0.693359 13.7891 0.380859 12.1289 0.380859ZM22.5293 14.5312C22.5293 14.5312 22.5244 14.5605 22.5146 14.6191C22.5049 14.6777 22.4902 14.7461 22.4707 14.8242C22.3926 15.1953 22.2949 15.5566 22.1777 15.9082C22.0605 16.2598 21.9238 16.6113 21.7676 16.9629C21.4551 17.666 21.0547 18.457 20.5664 19.3359C20.0781 20.2148 19.458 21.1572 18.7061 22.1631C17.9541 23.1689 17.0508 24.2383 15.9961 25.3711C14.9414 26.4844 13.7012 27.627 12.2754 28.7988C12.2559 28.8184 12.2314 28.833 12.2021 28.8428C12.1729 28.8525 12.1484 28.8574 12.1289 28.8574C12.1094 28.8574 12.085 28.8525 12.0557 28.8428C12.0264 28.833 12.002 28.8184 11.9824 28.7988C10.5566 27.627 9.31641 26.4844 8.26172 25.3711C7.20703 24.2383 6.29883 23.1689 5.53711 22.1631C4.77539 21.1572 4.15039 20.2148 3.66211 19.3359C3.17383 18.4375 2.7832 17.6367 2.49023 16.9336C2.33398 16.6016 2.19727 16.2598 2.08008 15.9082C1.96289 15.5566 1.85547 15.1953 1.75781 14.8242C1.73828 14.7461 1.72363 14.6826 1.71387 14.6338C1.7041 14.585 1.69922 14.5605 1.69922 14.5605C1.69922 14.541 1.69922 14.5312 1.69922 14.5312C1.69922 14.5312 1.69922 14.5215 1.69922 14.502C1.60156 14.0137 1.54297 13.5107 1.52344 12.9932C1.50391 12.4756 1.51367 11.9629 1.55273 11.4551C1.68945 10.1465 2.04102 8.91602 2.60742 7.76367C3.19336 6.61133 3.94043 5.61035 4.84863 4.76074C5.75684 3.91113 6.80664 3.23242 7.99805 2.72461C9.16992 2.2168 10.4199 1.93359 11.748 1.875C13.252 1.83594 14.668 2.08008 15.9961 2.60742C17.3438 3.1543 18.5156 3.91113 19.5117 4.87793C20.5078 5.84473 21.2891 6.98242 21.8555 8.29102C22.4414 9.59961 22.7344 11.0059 22.7344 12.5098C22.7344 12.8418 22.7197 13.1738 22.6904 13.5059C22.6611 13.8379 22.6074 14.1797 22.5293 14.5312Z" fill="white"/>
</svg>
