<svg width="80" height="80" viewBox="0 0 80 80" fill="none" xmlns="http://www.w3.org/2000/svg">
<circle cx="40" cy="40" r="39.5" fill="#02449F" stroke="#4794FF"/>
<path d="M58.3825 41.7549H54.3711C54.78 42.8743 55.0034 44.0824 55.0034 45.3416V60.5024C55.0034 61.0274 54.912 61.5313 54.7457 61.9999H61.3775C63.8548 61.9999 65.8701 59.9845 65.8701 57.5073V49.2425C65.8702 45.1139 62.5112 41.7549 58.3825 41.7549Z" fill="white"/>
<path d="M24.8668 45.3416C24.8668 44.0823 25.0902 42.8743 25.4991 41.7549H21.4877C17.359 41.7549 14 45.1139 14 49.2426V57.5074C14 59.9846 16.0153 62 18.4926 62H25.1245C24.9582 61.5312 24.8668 61.0274 24.8668 60.5024V45.3416Z" fill="white"/>
<path d="M44.5216 37.8535H35.351C31.2223 37.8535 27.8633 41.2125 27.8633 45.3412V60.502C27.8633 61.329 28.5337 61.9995 29.3608 61.9995H50.5118C51.3388 61.9995 52.0093 61.3291 52.0093 60.502V45.3412C52.0093 41.2125 48.6503 37.8535 44.5216 37.8535Z" fill="white"/>
<path d="M39.9346 18C34.9693 18 30.9297 22.0396 30.9297 27.005C30.9297 30.373 32.7886 33.3145 35.5338 34.8588C36.836 35.5913 38.3371 36.0099 39.9346 36.0099C41.532 36.0099 43.0332 35.5913 44.3353 34.8588C47.0807 33.3145 48.9395 30.3729 48.9395 27.005C48.9395 22.0397 44.8999 18 39.9346 18Z" fill="white"/>
<path d="M24.1212 26.3926C20.4077 26.3926 17.3867 29.4136 17.3867 33.127C17.3867 36.8405 20.4077 39.8615 24.1212 39.8615C25.0632 39.8615 25.9601 39.6664 26.775 39.3157C28.1838 38.7091 29.3454 37.6355 30.0641 36.2906C30.5686 35.3467 30.8557 34.2699 30.8557 33.127C30.8557 29.4137 27.8346 26.3926 24.1212 26.3926Z" fill="white"/>
<path d="M55.7462 26.3926C52.0327 26.3926 49.0117 29.4136 49.0117 33.127C49.0117 34.27 49.2987 35.3468 49.8032 36.2906C50.522 37.6356 51.6836 38.7092 53.0924 39.3157C53.9072 39.6664 54.8042 39.8615 55.7462 39.8615C59.4596 39.8615 62.4807 36.8405 62.4807 33.127C62.4807 29.4136 59.4596 26.3926 55.7462 26.3926Z" fill="white"/>
</svg>
