<svg width="80" height="80" viewBox="0 0 80 80" fill="none" xmlns="http://www.w3.org/2000/svg">
<circle cx="40" cy="40" r="39.5" fill="#02449F" stroke="#4794FF"/>
<path d="M50.1688 27.7734C50.7234 28.968 51.1368 30.2231 51.4008 31.5133C53.4062 32.6023 55.1298 34.1442 56.4345 36.0164C57.7392 37.8886 58.5891 40.0395 58.9165 42.2978C59.2438 44.5562 59.0397 46.8598 58.3203 49.0254C57.6009 51.191 56.3861 53.1589 54.7725 54.7725C53.1589 56.3861 51.191 57.6009 49.0254 58.3203C46.8598 59.0397 44.5562 59.2438 42.2978 58.9165C40.0395 58.5891 37.8886 57.7392 36.0164 56.4345C34.1442 55.1298 32.6023 53.4062 31.5133 51.4008C30.2231 51.1368 28.968 50.7234 27.7734 50.1688C28.7507 52.986 30.4277 55.5087 32.647 57.5002C34.8664 59.4916 37.5554 60.8865 40.4615 61.554C43.3677 62.2214 46.3959 62.1395 49.2617 61.316C52.1276 60.4924 54.7372 58.9542 56.8457 56.8457C58.9542 54.7372 60.4924 52.1276 61.316 49.2617C62.1395 46.3959 62.2214 43.3677 61.554 40.4615C60.8865 37.5554 59.4916 34.8664 57.5002 32.647C55.5087 30.4277 52.986 28.7507 50.1688 27.7734Z" fill="white"/>
<path d="M44.4045 26.8049C46.3666 26.8005 48.3153 27.1278 50.1683 27.7729C49.0266 25.31 47.3073 23.1591 45.1565 21.5028C43.0056 19.8466 40.4867 18.734 37.8138 18.2596C35.141 17.7851 32.393 17.9629 29.8036 18.7777C27.2141 19.5926 24.8596 21.0204 22.94 22.94C21.0204 24.8596 19.5926 27.2141 18.7777 29.8036C17.9629 32.393 17.7851 35.141 18.2596 37.8138C18.734 40.4867 19.8466 43.0056 21.5028 45.1565C23.1591 47.3073 25.31 49.0266 27.7729 50.1683C27.1278 48.3153 26.8005 46.3666 26.8049 44.4045C26.8049 39.7368 28.6592 35.2603 31.9597 31.9597C35.2603 28.6592 39.7368 26.8049 44.4045 26.8049Z" fill="white"/>
<path d="M29.7383 44.404C29.7378 46.8474 30.3479 49.2521 31.5129 51.3998C34.2426 51.9546 37.0673 51.8247 39.7345 51.0216C42.4018 50.2186 44.8286 48.7674 46.7983 46.7977C48.7679 44.8281 50.2191 42.4012 51.0222 39.734C51.8252 37.0667 51.9552 34.2421 51.4004 31.5124C49.1664 30.2999 46.6556 29.6889 44.1143 29.7392C41.5729 29.7895 39.0883 30.4994 36.904 31.7994C34.7198 33.0993 32.9108 34.9446 31.6546 37.1543C30.3984 39.364 29.738 41.8622 29.7383 44.404Z" fill="white"/>
</svg>
